PathFileType	4	(X/Y/Z)	C:/Users/beibeiliu/ov580/test_trc/User3\sequence.20_training_dense_right.trc
DataRate	CameraRate	NumFrames	NumMarkers	Units	OrigDataRate	OrigDataStartFrame	OrigNumFrames
120	120	18	19	mm	120	1	89
Frame#	Time	ThumbCMC			ThumbMCP			ThumbIP			ThumbTip			IndexMCP			IndexPIP			IndexTip			MiddleMCP			MiddlePIP			MiddleTip			RingMCP			RingPIP			RingTip			PinkyMCP			PinkyPIP			PinkyTip			BackHand1			BackHand2			BackHand3	
		X0	Y0	Z0	X1	Y1	Z1	X2	Y2	Z2	X3	Y3	Z3	X4	Y4	Z4	X5	Y5	Z5	X6	Y6	Z6	X7	Y7	Z7	X8	Y8	Z8	X9	Y9	Z9	X10	Y10	Z10	X11	Y11	Z11	X12	Y12	Z12	X13	Y13	Z13	X14	Y14	Z14	X15	Y15	Z15	X16	Y16	Z16	X17	Y17	Z17	X18	Y18	Z18	
0	0	131.559	27.0821	33.9346	106.992	18.6613	11.0048	93.7471	8.89551	-14.8282	87.8904	-1.69472	-34.5224	145.482	34.9722	-43.0047	137.61	30.3969	-71.8503	129.543	27.9324	-92.1398	173.658	28.4913	-48.3032	168.006	24.2428	-76.4204	166.643	12.0571	-106.887	188.485	18.5451	-40.1644	190.92	14.8035	-66.4789	194.184	5.08174	-93.0041	204.228	6.03504	-22.7152	214.581	1.23957	-43.2794	223.319	-6.1618	-62.0583	190.4	30.698	9.30633	192.468	36.4868	39.9321	161.156	45.0558	23.9914	
1	0.00833333	128.563	28.096	28.7219	109.959	18.6558	11.9609	94.4119	9.4924	-16.3705	83.127	-0.592729	-32.1117	144.136	34.9612	-43.3369	134.739	33.014	-71.7929	131.419	25.9451	-96.1131	168.777	30.2083	-47.9781	165.822	24.0609	-80.8113	164.721	12.798	-109.331	185.286	20.8031	-43.0544	193.53	14.7319	-63.8056	191.416	6.95724	-93.2662	202.231	6.65687	-22.9059	213.773	2.19771	-45.1914	218.103	-4.69254	-67.0283	188.862	31.0899	8.77892	191.422	36.106	38.901	159.841	46.6983	20.27	
2	0.0166667	127.109	29.9977	33.5381	109.613	19.293	9.12879	92.2029	10.7934	-15.7338	85.7128	0.516295	-33.8728	143.984	36.5441	-44.2644	133.836	35.3761	-68.5716	131.72	28.3538	-93.5777	168.335	31.3279	-53.6456	164.944	25.9159	-80.9113	164.13	13.6174	-111.027	187.189	21.2513	-42.1229	188.821	17.9077	-64.7465	190.769	8.13779	-92.5726	202.255	9.45729	-24.718	212.286	3.07279	-43.4563	217.741	-2.25606	-63.9853	189.363	32.1234	7.03756	194.296	36.7068	35.5184	161.633	47.8027	21.2906	
3	0.025	126.385	32.2432	30.2284	107.526	21.2916	11.0427	94.4119	10.6857	-18.1035	87.3285	-1.85914	-36.47	142.348	40.2305	-42.4999	133.719	36.9149	-72.7382	132.858	30.5272	-95.235	172.357	33.0603	-51.4084	168.801	27.1789	-81.8361	166.16	15.7108	-109.079	186.157	25.435	-43.8755	190.398	20.2344	-68.9981	189.249	11.1028	-93.5689	201.581	11.2277	-23.8154	210.496	6.07277	-42.1675	218.635	-1.65212	-67.9974	187.552	36.8184	6.62577	192.589	37.2733	38.1601	158.272	50.2968	17.7358	
4	0.0333333	127.305	34.1345	28.238	111.71	19.6886	7.99325	101.32	6.68831	-19.9605	103.612	-9.30965	-40.3889	145.268	43.1863	-46.2848	135.657	41.87	-69.8503	134.506	33.6813	-94.3347	169.336	38.5122	-48.1238	167.828	31.3869	-81.7441	164.632	22.2535	-108.122	186.066	27.0194	-39.2039	188.488	23.9266	-69.8762	190.42	14.7591	-95.535	203.098	12.0491	-21.8642	211.984	8.72922	-47.5059	217.73	0.0125396	-68.9618	189.263	38.3442	9.80942	197.373	40.345	37.8757	164.817	51.2026	21.7072	
5	0.0416667	130.485	32.3589	27.1431	118.62	16.2951	5.14727	115.98	0.74985	-19.5001	128.488	-14.6519	-37.6841	143.556	45.0525	-43.9329	140.128	41.1984	-71.773	129.155	37.1731	-96.4513	172.872	39.315	-47.8257	171.635	34.5649	-78.0119	164.997	25.546	-106.332	186.749	29.8646	-42.3511	192.729	25.9064	-66.3802	189.178	17.9961	-91.4711	205.961	13.6653	-25.4385	210.011	11.2513	-44.6118	219.413	2.89532	-70.7515	194.449	36.8986	7.48736	195.947	40.8298	35.4425	165.994	52.0303	18.3593	
6	0.05	134.436	30.7178	27.8259	119.6	14.8043	1.33962	128.456	-2.87124	-27.2653	150.685	-17.2171	-35.8931	145.494	45.5069	-44.232	135.642	44.0087	-71.7092	134.356	36.1173	-95.4896	171.102	41.5783	-49.0003	169.679	36.3393	-78.0949	165.517	26.0157	-108.302	191.319	29.2226	-42.0676	194.061	25.8366	-66.4932	193.001	17.9395	-91.6703	202.79	14.277	-23.3821	212.653	9.34589	-46.9509	217.848	4.27654	-71.573	192.301	39.4893	10.2603	194.456	41.3929	37.7801	164.576	52.6135	19.2632	
7	0.0583333	134.302	29.4925	31.6773	124.607	14.1051	-1.41768	139.995	-1.58686	-26.8328	167.929	-12.2167	-30.7365	143.994	46.6866	-44.6587	138.267	41.4599	-73.4953	131.791	36.0358	-97.956	172.916	40.1758	-51.1129	169.685	36.0983	-79.7085	168.025	25.0461	-112.468	192.063	29.0564	-43.1599	195.345	26.7022	-67.9076	191.347	22.2676	-92.2462	203.637	15.4302	-22.3469	210.271	13.7555	-44.059	219.752	10.0642	-69.2049	192.567	40.7215	5.68735	196.013	41.8081	39.3538	163.162	54.0297	22.2901	
8	0.0666667	138.335	27.9151	26.2333	127.517	13.4647	-3.25604	146.364	1.72857	-25.6001	174	-7.27841	-28.5439	144.322	45.6849	-46.6676	136.197	43.5986	-72.4428	132.969	37.697	-94.2687	172.807	43.0065	-50.7472	169.807	38.18	-82.6378	165.903	31.2652	-107.676	188.926	34.6189	-40.2516	192.245	33.1237	-66.0012	193.762	27.7906	-96.1721	206.229	21.1537	-25.1032	210.657	21.0696	-48.0002	221.642	17.3049	-67.763	195.929	42.3823	6.39473	198.278	42.8237	35.323	164.81	52.4326	22.5796	
9	0.075	137.399	30.5978	27.9306	132.006	16.1664	-7.39771	151.677	7.90029	-30.6286	182.534	4.0117	-31.1255	145.943	52.2125	-48.6696	134.451	49.8575	-70.7684	131.204	42.8351	-98.8964	169.556	53.6294	-55.354	169.617	48.7344	-84.6267	165.959	42.9486	-111.184	190.644	44.9858	-42.8939	192.105	45.5086	-68.4482	193.658	41.8105	-96.9458	210.582	32.586	-27.9587	214.711	34.7959	-49.8932	220.876	36.2568	-71.9302	190.491	49.7932	6.61786	197.992	50.1539	31.9271	166.18	59.069	21.4956	
10	0.0833333	145.466	39.5474	19.1085	139.197	24.1459	-16.3008	161.072	15.0824	-39.5686	191.8	15.5158	-34.6224	148.614	64.6367	-49.2757	138.668	61.567	-79.8568	139.51	55.7291	-102.233	176.704	66.2542	-58.5416	177.608	64.5609	-85.3937	173.96	56.3284	-116.303	197.466	60.0092	-50.483	199.4	61.3853	-73.4111	200.66	57.8794	-101.138	216.88	46.5004	-32.3711	221.163	50.3878	-53.8097	229.471	52.0823	-79.232	195.027	62.2402	4.11195	200.762	63.3241	31.9611	168.321	67.1719	17.4252	
11	0.0916667	151.773	38.2333	18.4723	151.036	23.5612	-15.7036	175.541	15.2501	-42.3328	205.009	15.8339	-36.9316	156.094	64.3839	-56.037	151.349	61.0981	-84.1787	147.837	52.308	-109.127	183.563	67.6371	-58.6764	186.372	65.9305	-90.5404	182.33	57.4841	-120.793	206.185	62.5599	-51.9711	210.665	62.9604	-75.8598	210.648	57.9465	-105.97	222.184	51.5414	-37.3635	233.512	53.4427	-57.9977	242.598	51.8905	-79.1443	205.146	65.0194	-3.93019	206.941	65.426	27.402	171.649	69.7689	9.33976	
12	0.1	156.774	22.8651	19.2412	159.608	4.80419	-12.4592	181.554	-5.454	-32.8819	210.499	-3.84228	-30.5144	165.021	40.849	-58.3252	162.71	33.6512	-83.3877	157.337	25.0075	-103.865	193.493	44.799	-62.8332	199.643	37.8028	-90.9133	198.716	27.8895	-118.136	214.605	40.5855	-51.111	222.962	38.2399	-76.2641	221.814	32.2483	-102.454	233.981	32.6749	-31.6881	241.571	32.7168	-52.0275	250.981	30.0107	-74.0693	210.532	50.8884	-1.2996	212.283	52.091	27.8544	178.4	55.8115	12.2017	
13	0.108333	158.725	2.17391	26.4922	156.813	-20.5758	-0.777275	180.151	-30.8635	-18.961	206.512	-32.8361	-16.0785	167.762	4.75412	-47.8732	163.148	-4.85901	-74.2505	158.343	-17.9266	-98.8419	196.981	8.09797	-50.7955	198.259	-1.31317	-78.2187	199.771	-16.2187	-109.695	216.349	5.27783	-43.6222	216.176	0.16338	-65.5025	223.653	-8.91505	-88.2068	233.012	0.62085	-18.7071	242.443	-2.89133	-42.8507	248.448	-6.66214	-60.6315	207.893	24.3314	7.12448	210.217	31.6477	31.186	175.564	32.161	15.8849	
14	0.116667	141.424	-12.9643	38.842	135.228	-39.1476	14.8524	159.236	-52.8602	-3.23165	190.975	-53.1586	-0.392623	146.479	-22.1962	-38.8116	143.008	-35.8085	-61.5604	136.167	-46.9353	-80.595	173.715	-22.7073	-41.632	178.087	-34.7594	-64.4517	175.946	-51.6959	-93.895	198.113	-24.7391	-31.2967	199.81	-33.773	-56.6343	201.372	-46.775	-79.7083	213.392	-27.2957	-9.19469	224.685	-32.7037	-28.2973	230.535	-41.8257	-52.4998	196.126	1.0375	13.2602	194.896	14.8453	38.2348	162.344	10.1341	20.4242	
15	0.125	119.548	-3.1436	46.078	108.903	-28.2907	25.602	123.467	-50.8879	7.26928	151.28	-59.0244	9.56601	119.526	-20.2011	-28.8116	109.758	-33.4274	-51.3623	101.826	-43.9165	-70.3323	145.831	-30.1756	-35.3234	139.975	-43.9119	-59.0532	135.006	-59.2276	-82.1286	163.632	-35.0092	-25.3812	168.966	-46.6085	-44.0342	165.281	-62.3984	-68.6067	184.098	-41.2915	-3.64664	189.52	-51.9938	-22.0966	191.864	-62.8655	-43.5519	177.611	-6.01973	18.0688	183.456	6.86103	39.1397	147.003	12.2819	28.5102	
16	0.133333	112.615	25.2386	47.0289	88.2708	7.16331	25.6049	96.7754	-21.0015	8.81012	116.729	-39.5224	12.6822	101.783	7.56338	-29.1329	87.7697	0.415661	-49.6142	78.3232	-12.7004	-71.0234	121.209	-9.49302	-31.8232	109.685	-22.4921	-54.5319	99.9354	-40.3065	-77.2338	135.33	-22.9014	-19.7213	129.409	-37.5934	-44.284	120.064	-51.251	-65.993	150.947	-36.7729	-0.192423	146.475	-50.5347	-22.4133	144.467	-62.6824	-41.5212	159.661	1.28504	17.6704	173.112	11.4662	40.7695	141.827	28.8049	27.9549	
17	0.141667	119.698	61.4037	38.4622	93.4005	49.4553	18.6605	81.9731	24.1791	5.20275	92.577	-1.84542	9.24307	105.363	40.5531	-35.2574	90.8344	38.1996	-56.2849	76.8741	33.2804	-74.8189	111.229	15.8378	-37.8853	94.9865	9.00451	-60.6811	76.7013	3.64636	-82.9819	116.565	1.5208	-26.0549	104.545	-12.929	-47.1059	90.5593	-17.5562	-65.1919	122.904	-15.9171	-6.23544	114.124	-29.3779	-23.1688	109.713	-42.8741	-38.4204	151.108	12.2362	14.0324	167.834	18.2257	39.0444	147.85	49.7622	21.7286	
